HIERARCHY
ROOT Hips
{
	OFFSET 0.000000 0.000000 0.000000
	CHANNELS 6 Xposition Yposition Zposition Xrotation Yrotation Zrotation
	JOINT LeftUpLeg_virtual
	{
		OFFSET 0.000000 0.000000 0.000000
		CHANNELS 3 Xrotation Yrotation Zrotation
		JOINT LeftUpLeg
		{
			OFFSET 11.394100 -6.187798 -0.413800
			CHANNELS 3 Xrotation Yrotation Zrotation
			JOINT LeftLeg
			{
				OFFSET 0.430247 -32.302673 3.732800
				CHANNELS 3 Xrotation Yrotation Zrotation
				JOINT LeftFoot
				{
					OFFSET -0.430247 -48.264931 -6.423300
					CHANNELS 3 Xrotation Yrotation Zrotation
					JOINT LeftToeBase
					{
						OFFSET 4.230900 -16.068199 23.438400
						CHANNELS 3 Xrotation Yrotation Zrotation
						JOINT LeftToe_End
						{
							OFFSET 4.510700 0.695400 19.974600
							CHANNELS 3 Xrotation Yrotation Zrotation
							End Site
							{
								OFFSET 0 0 0
							}
						}
					}
				}
			}
		}
	}
	JOINT RightUpLeg_virtual
	{
		OFFSET 0.000000 0.000000 0.000000
		CHANNELS 3 Xrotation Yrotation Zrotation
		JOINT RightUpLeg
		{
			OFFSET -11.333700 -6.187798 -0.413800
			CHANNELS 3 Xrotation Yrotation Zrotation
			JOINT RightLeg
			{
				OFFSET -0.430392 -32.302628 3.733000
				CHANNELS 3 Xrotation Yrotation Zrotation
				JOINT RightFoot
				{
					OFFSET 0.430392 -48.264973 -6.423500
					CHANNELS 3 Xrotation Yrotation Zrotation
					JOINT RightToeBase
					{
						OFFSET -4.230900 -16.068199 23.438400
						CHANNELS 3 Xrotation Yrotation Zrotation
						JOINT RightToe_End
						{
							OFFSET -4.510700 0.695400 19.974600
							CHANNELS 3 Xrotation Yrotation Zrotation
							End Site
							{
								OFFSET 0 0 0
							}
						}
					}
				}
			}
		}
	}
	JOINT Spine_virtual
	{
		OFFSET 0.000000 0.000000 0.000000
		CHANNELS 3 Xrotation Yrotation Zrotation
		JOINT Spine
		{
			OFFSET -0.002400 12.777504 0.315300
			CHANNELS 3 Xrotation Yrotation Zrotation
			JOINT Spine1
			{
				OFFSET -0.002067 5.816869 0.032633
				CHANNELS 3 Xrotation Yrotation Zrotation
				JOINT Spine1_split
				{
					OFFSET -0.002067 5.816869 0.032633
					CHANNELS 3 Xrotation Yrotation Zrotation
					JOINT Spine2
					{
						OFFSET -0.002067 5.816869 0.032633
						CHANNELS 3 Xrotation Yrotation Zrotation
						JOINT Neck_virtual
						{
							OFFSET 0.000000 0.000000 0.000000
							CHANNELS 3 Xrotation Yrotation Zrotation
							JOINT Neck
							{
								OFFSET -0.003700 21.199493 -0.826900
								CHANNELS 3 Xrotation Yrotation Zrotation
								JOINT Head
								{
									OFFSET 0.000000 20.442200 4.834800
									CHANNELS 3 Xrotation Yrotation Zrotation
									JOINT HeadTop_End
									{
										OFFSET 0.000000 34.668396 4.968400
										CHANNELS 3 Xrotation Yrotation Zrotation
										End Site
										{
											OFFSET 0 0 0
										}
									}
								}
							}
						}
						JOINT LeftShoulder_virtual
						{
							OFFSET 0.000000 0.000000 0.000000
							CHANNELS 3 Xrotation Yrotation Zrotation
							JOINT LeftShoulder
							{
								OFFSET 3.288150 8.794197 -1.372250
								CHANNELS 3 Xrotation Yrotation Zrotation
								JOINT LeftShoulder_split
								{
									OFFSET 3.288150 8.794197 -1.372250
									CHANNELS 3 Xrotation Yrotation Zrotation
									JOINT LeftArm
									{
										OFFSET 11.953299 -2.279007 -0.146200
										CHANNELS 3 Xrotation Yrotation Zrotation
										JOINT LeftForeArm
										{
											OFFSET 18.448900 0.000000 0.000000
											CHANNELS 3 Xrotation Yrotation Zrotation
											JOINT LeftHand
											{
												OFFSET 29.527798 0.000000 0.000000
												CHANNELS 3 Xrotation Yrotation Zrotation
												End Site
												{
													OFFSET 0 0 0
												}
											}
										}
									}
								}
							}
						}
						JOINT RightShoulder_virtual
						{
							OFFSET 0.000000 0.000000 0.000000
							CHANNELS 3 Xrotation Yrotation Zrotation
							JOINT RightShoulder
							{
								OFFSET -3.249400 8.794197 -1.372250
								CHANNELS 3 Xrotation Yrotation Zrotation
								JOINT RightShoulder_split
								{
									OFFSET -3.249400 8.794197 -1.372250
									CHANNELS 3 Xrotation Yrotation Zrotation
									JOINT RightArm
									{
										OFFSET -11.953299 -2.279007 -0.146200
										CHANNELS 3 Xrotation Yrotation Zrotation
										JOINT RightForeArm
										{
											OFFSET -18.448900 0.000000 0.000000
											CHANNELS 3 Xrotation Yrotation Zrotation
											JOINT RightHand
											{
												OFFSET -29.527802 0.000000 0.000000
												CHANNELS 3 Xrotation Yrotation Zrotation
												End Site
												{
													OFFSET 0 0 0
												}
											}
										}
									}
								}
							}
						}
					}
				}
			}
		}
	}
}
MOTION
Frames: 11
Frame Time: 0.03333333
4.460548 82.857849 33.043823 0.000000 0.000000 0.000000 11.300895 -0.958939 -6.513323 -89.426738 17.282703 16.789199 110.271075 -0.770745 0.951781 5.959362 4.306922 -3.129141 -0.988122 -0.225315 -0.497200 0.000000 0.000000 0.000000 7.359066 -9.101147 -4.980695 -31.175347 -9.688103 5.161584 39.799738 10.036875 -2.518393 -23.763270 -4.163835 -9.612075 -17.228430 0.537805 -2.548743 0.000000 0.000000 0.000000 9.409850 -7.551823 -5.801448 8.971330 2.902738 4.031311 5.795208 -0.431039 -1.240550 0.525425 2.067628 -0.811574 0.000000 0.000000 0.000000 3.490863 -0.010109 -1.980554 -0.189536 1.596386 -3.836507 -11.217533 12.230692 0.743322 0.000000 0.000000 0.000000 4.218590 -0.371262 -1.519509 -0.421620 -10.489816 -4.466157 1.080175 4.676108 -1.682890 10.224050 -9.326334 -50.627036 5.888249 -80.031840 6.252791 0.000000 0.000000 0.000000 3.961207 0.210581 -0.710097 3.070030 5.227637 13.649822 8.642758 -0.077237 -3.879833 -0.714921 29.314141 25.263085 165.076902 72.258996 -167.531631 0.000000 0.000000 0.000000 
3.116229 83.293129 43.308384 0.000000 0.000000 0.000000 9.434222 -3.057674 -7.609859 -92.988477 17.099140 19.508057 99.816883 -0.052042 -0.817717 4.994799 3.236918 -5.503617 0.221228 -0.452568 1.315529 0.000000 0.000000 0.000000 6.787337 -10.748209 -5.943847 -23.402815 -8.518217 5.716056 43.058155 9.527920 -2.814254 -24.395103 -2.466284 -8.873813 -11.312446 0.813656 -2.452261 0.000000 0.000000 0.000000 9.768492 -6.509287 -6.965473 8.573722 3.582955 3.849049 5.731361 -0.567313 -1.404323 0.895680 2.798105 -0.925501 0.000000 0.000000 0.000000 2.629404 0.185710 -2.037541 -0.163982 1.174114 -3.766281 -11.442855 12.759184 1.733440 0.000000 0.000000 0.000000 3.960848 -0.067862 -1.481764 -0.336097 -7.598149 -4.682575 2.304561 5.803553 -2.350382 17.279393 -7.096168 -50.078684 2.235677 -79.049700 2.257490 0.000000 0.000000 0.000000 3.550652 0.262802 -0.923220 2.876376 4.427361 13.784123 7.000225 -2.993025 -3.077141 -3.374180 25.942693 28.831250 172.123035 70.652194 -174.777861 0.000000 0.000000 0.000000 
1.734459 83.700745 54.921581 0.000000 0.000000 0.000000 6.811588 -5.058190 -8.724402 -92.693481 15.506908 19.716705 86.445080 0.929439 -2.297048 1.988655 2.783234 -7.350282 1.187497 -0.773316 1.984696 0.000000 0.000000 0.000000 5.303634 -9.382870 -7.425041 -14.698572 -7.828072 6.940559 46.808304 8.164252 -3.327103 -22.767218 -0.582406 -8.770845 -9.473133 1.804489 -3.334122 0.000000 0.000000 0.000000 9.388519 -5.874230 -8.143911 7.995116 4.979047 3.657208 5.580846 -0.319662 -1.340716 0.695194 2.974521 -0.196133 0.000000 0.000000 0.000000 2.250637 0.620747 -1.903440 -0.494624 -0.057298 -3.493353 -11.240357 11.112123 2.506835 0.000000 0.000000 0.000000 3.809040 0.487148 -1.322666 -0.052157 -4.166340 -4.862613 3.178715 5.561618 -2.435568 23.138536 -3.688277 -50.539049 -3.657232 -78.504459 -4.039464 0.000000 0.000000 0.000000 3.332583 0.643477 -1.096965 2.603545 3.705577 14.792614 5.576026 -4.068824 -2.557894 -7.329796 19.105530 33.515615 -179.617624 71.296096 176.744409 0.000000 0.000000 0.000000 
0.911530 83.283371 66.313248 0.000000 0.000000 0.000000 3.275276 -5.780326 -9.437860 -87.917252 13.428897 17.562604 75.023467 2.299109 -3.366752 -2.162971 3.542633 -7.263821 2.338278 -1.083726 1.135725 0.000000 0.000000 0.000000 3.726965 -6.379685 -8.544978 -6.969225 -7.862942 8.433112 51.429402 6.148908 -3.700977 -18.137081 0.637492 -9.456702 -14.187660 3.205773 -5.054690 0.000000 0.000000 0.000000 6.678771 -4.798935 -8.972471 7.370623 6.654263 3.191876 5.288052 0.249016 -1.195327 0.609443 2.426391 0.555959 0.000000 0.000000 0.000000 2.184260 1.147421 -1.708620 -0.824096 -1.552892 -3.275531 -10.404296 7.635457 2.914231 0.000000 0.000000 0.000000 3.580657 1.130212 -1.197658 0.381669 -1.335483 -5.142843 3.759856 3.472260 -2.904403 25.975226 -0.730170 -51.377349 -9.444839 -77.974150 -10.028775 0.000000 0.000000 0.000000 3.331936 1.138054 -1.329253 2.352651 3.377588 16.531605 4.109585 -2.934196 -2.193458 -9.210911 11.960102 36.972162 -167.084691 76.120942 164.178159 0.000000 0.000000 0.000000 
0.608621 82.233147 77.613068 0.000000 0.000000 0.000000 -1.358557 -5.350170 -9.117821 -78.811463 11.506611 13.951311 67.876760 3.874691 -4.429470 -7.235173 4.975007 -4.730725 3.250659 -1.144490 -0.812609 0.000000 0.000000 0.000000 0.923140 -3.211565 -8.915466 -4.479158 -9.744279 8.525519 61.334395 4.922756 -3.608037 -6.662830 0.793134 -8.954302 -17.419323 4.199715 -6.046879 0.000000 0.000000 0.000000 1.699522 -2.710067 -8.808627 6.934118 7.930449 2.118028 4.880577 0.938680 -1.155477 0.217789 1.544596 0.968313 0.000000 0.000000 0.000000 2.101871 1.498958 -1.550806 -0.786413 -2.878121 -3.203730 -8.420919 3.178901 2.980631 0.000000 0.000000 0.000000 3.146098 1.591180 -1.223358 0.885763 -0.280098 -5.930167 4.047621 0.641997 -3.790177 24.481756 0.865613 -51.932681 -11.248303 -75.869987 -11.775028 0.000000 0.000000 0.000000 3.444995 1.528520 -1.598024 2.039102 3.837676 18.603415 3.002497 0.066292 -1.295491 -7.897206 8.021305 38.849785 -104.221426 84.407915 101.574223 0.000000 0.000000 0.000000 
0.712909 81.070564 87.207870 0.000000 0.000000 0.000000 -7.237478 -4.478260 -7.576918 -64.943010 9.749292 9.700257 64.584097 5.062571 -5.506968 -12.530712 5.994324 -0.385819 1.873923 -0.795805 -2.864965 0.000000 0.000000 0.000000 -4.948590 -0.124540 -8.377060 -10.316485 -13.597570 6.034942 76.878950 4.910003 -3.341248 9.928504 0.174270 -6.456407 -12.285711 4.070628 -5.517152 0.000000 0.000000 0.000000 -5.256859 -0.988096 -7.250253 6.753627 8.210952 0.268156 4.420635 1.369436 -1.257114 -0.348500 0.935723 0.763981 0.000000 0.000000 0.000000 1.725554 1.506415 -1.453162 -0.171301 -3.593085 -3.251671 -4.597190 -0.686347 3.033838 0.000000 0.000000 0.000000 2.556397 1.643490 -1.463721 1.289981 -1.752984 -7.370593 3.678748 -2.042139 -5.212096 18.607983 0.858938 -51.538258 -8.650674 -70.346850 -8.758661 0.000000 0.000000 0.000000 3.523443 1.612440 -1.874367 1.588787 5.263024 20.472619 2.169534 2.995970 -0.627633 -3.436040 10.395405 38.959245 -21.077720 71.958994 18.952679 0.000000 0.000000 0.000000 
0.971509 80.585770 95.663528 0.000000 0.000000 0.000000 -14.327679 -3.123231 -5.309261 -47.458463 8.302742 5.623982 62.148663 5.682477 -6.447408 -17.342248 5.942742 3.655817 -0.904075 -0.038328 -4.286053 0.000000 0.000000 0.000000 -12.567516 3.233436 -6.410005 -21.898442 -17.268873 1.309671 91.126690 4.604067 -2.798130 23.000167 -0.370017 -3.642978 -4.731379 3.240164 -4.598318 0.000000 0.000000 0.000000 -13.354340 0.343157 -5.020140 6.715121 7.245781 -2.081444 4.005006 1.255342 -1.394207 0.009102 -0.118507 -0.282078 0.000000 0.000000 0.000000 0.988451 1.059849 -1.388925 0.699492 -3.542397 -3.280915 1.164552 -3.014463 3.392144 0.000000 0.000000 0.000000 1.992720 1.171352 -1.737383 1.402155 -5.989789 -9.509640 2.761555 -3.253896 -6.251216 9.687540 -0.811473 -49.960358 -5.212946 -61.268648 -4.846858 0.000000 0.000000 0.000000 3.499538 1.280141 -2.082416 0.922067 7.414586 21.555701 0.639149 3.961769 -0.121124 3.247407 19.484967 36.456951 -9.683674 53.138851 8.067134 0.000000 0.000000 0.000000 
1.266317 81.928940 103.301376 0.000000 0.000000 0.000000 -21.775584 -2.747463 -3.312646 -27.399662 7.055267 2.714533 57.772711 5.400173 -7.054167 -19.826574 4.806680 5.228028 -3.216053 0.896394 -4.818692 0.000000 0.000000 0.000000 -20.097067 5.769207 -3.745859 -34.013645 -18.446673 -2.859966 99.652023 3.077942 -1.936486 28.047583 -0.877207 -1.688027 -0.941714 2.311935 -4.492144 0.000000 0.000000 0.000000 -20.974042 0.328410 -2.974830 6.488377 4.999784 -4.283614 3.755012 0.557672 -1.388195 0.471841 -1.455169 -1.151879 0.000000 0.000000 0.000000 -0.010020 0.142993 -1.229905 1.596171 -2.925129 -2.922113 8.577523 -3.335073 4.084983 0.000000 0.000000 0.000000 1.629868 0.260737 -1.786071 1.069678 -12.416252 -12.161077 1.427451 -2.582657 -6.987884 -0.110010 -3.284462 -47.244077 -3.181559 -50.221315 -2.401695 0.000000 0.000000 0.000000 3.346236 0.528848 -2.040872 0.067845 9.824382 21.391265 -0.876956 3.916916 -0.581889 9.282026 31.780843 31.625487 -5.892890 40.196852 4.509511 0.000000 0.000000 0.000000 
1.246810 85.486664 110.389023 0.000000 0.000000 0.000000 -28.481100 -3.095873 -2.344285 -7.027696 6.356562 1.455348 50.042088 5.150963 -7.327614 -19.662446 3.526656 4.802591 -3.904013 1.591903 -4.618651 0.000000 0.000000 0.000000 -26.725550 6.447513 -1.496490 -44.097030 -16.750733 -4.214248 102.085196 0.452141 -0.822642 28.497940 -1.301573 0.212849 2.254360 1.429408 -4.967599 0.000000 0.000000 0.000000 -27.639679 -0.786630 -1.962362 5.583314 1.794921 -5.630653 3.632533 -0.599414 -1.112335 1.009827 -2.337223 -0.964481 0.000000 0.000000 0.000000 -0.899751 -1.042963 -0.918317 2.693108 -1.768985 -1.951743 16.659641 -1.669527 4.607398 0.000000 0.000000 0.000000 1.458874 -0.912822 -1.490992 0.290231 -19.675456 -14.710703 0.052018 -0.539744 -7.296570 -8.038532 -5.901222 -43.386857 -2.471334 -40.849046 -1.421503 0.000000 0.000000 0.000000 2.960802 -0.553243 -1.720055 -0.690017 11.892363 19.552929 -1.520762 3.145404 -1.749693 11.515357 44.261456 26.555629 -4.471365 37.709266 2.977203 0.000000 0.000000 0.000000 
1.205713 91.154617 116.693253 0.000000 0.000000 0.000000 -33.576346 -4.070193 -2.518822 11.785525 6.941895 1.332871 38.852667 6.431730 -7.149998 -18.133020 2.888073 3.768381 -2.719483 1.899188 -3.813243 0.000000 0.000000 0.000000 -32.631567 4.422351 -0.815779 -52.782882 -13.082478 -2.152087 99.293008 -2.949256 0.380999 30.338252 -1.626229 3.410284 7.200451 0.470889 -5.108134 0.000000 0.000000 0.000000 -32.888546 -2.546789 -2.311404 3.870820 -1.810182 -5.835128 3.522048 -1.889298 -0.634775 1.931309 -2.882888 -0.391980 0.000000 0.000000 0.000000 -1.376460 -2.295566 -0.462556 4.005098 -0.244931 -0.564087 23.855739 1.228503 4.185437 0.000000 0.000000 0.000000 1.203869 -2.084408 -0.946145 -0.720977 -26.243284 -16.580137 -1.197664 1.595078 -5.971517 -12.988443 -8.117892 -38.668522 -2.526571 -36.813371 -1.520188 0.000000 0.000000 0.000000 2.264823 -1.778435 -1.178716 -1.107514 13.113441 16.064767 -1.307410 2.393094 -2.831080 3.347072 53.965410 28.367878 -3.996874 44.124695 2.133372 0.000000 0.000000 0.000000 
1.292119 98.082634 122.586853 0.000000 0.000000 0.000000 -37.508537 -5.541147 -3.843338 27.032680 8.645909 1.845142 25.977786 8.536561 -6.012343 -15.559290 2.963360 2.055805 -1.133391 1.853867 -2.395011 0.000000 0.000000 0.000000 -37.172109 0.879432 -1.874333 -59.515605 -8.581783 3.043666 91.483479 -6.271904 0.772740 35.487423 -1.088627 8.464292 9.268151 -0.420858 -4.909048 0.000000 0.000000 0.000000 -36.993995 -5.041905 -3.865756 1.721333 -5.247848 -4.947815 3.402709 -3.041406 -0.137830 2.284285 -2.675046 0.411697 0.000000 0.000000 0.000000 -1.401834 -3.396536 0.086222 5.391496 1.414828 0.734375 29.087662 4.537480 2.600675 0.000000 0.000000 0.000000 0.763460 -3.054811 -0.438734 -1.391159 -30.861677 -16.705196 -2.040903 2.585162 -4.127415 -14.977813 -9.580394 -33.036829 -2.909995 -38.528342 -2.358919 0.000000 0.000000 0.000000 1.357427 -2.966035 -0.523461 -1.081161 13.231293 11.750658 -0.432514 2.811721 -3.938378 -19.676757 56.711935 42.433008 -3.863273 54.984577 1.746436 0.000000 0.000000 0.000000 
